<?xml version="1.0" standalone="no"?>
<!DOCTYPE svg PUBLIC "-//W3C//DTD SVG 20010904//EN"
 "http://www.w3.org/TR/2001/REC-SVG-20010904/DTD/svg10.dtd">
<svg version="1.0" xmlns="http://www.w3.org/2000/svg"
 width="456.000000pt" height="456.000000pt" viewBox="0 0 456.000000 456.000000"
 preserveAspectRatio="xMidYMid meet">
<metadata>
Created by potrace 1.11, written by Peter Selinger 2001-2013
</metadata>
<g transform="translate(0.000000,456.000000) scale(0.100000,-0.100000)"
fill="#000000" stroke="none">
<path d="M1635 3652 c-29 -6 -86 -52 -80 -63 4 -5 2 -9 -3 -9 -14 0 -32 -72
-32 -128 0 -27 9 -78 20 -113 36 -118 94 -190 306 -379 163 -145 210 -227 208
-365 0 -51 -7 -84 -24 -120 -26 -58 -136 -170 -196 -200 -21 -11 -41 -22 -44
-26 -11 -12 -151 -58 -211 -69 -136 -25 -295 -8 -393 42 -70 36 -276 250 -276
287 0 5 -13 23 -29 39 -30 33 -70 35 -72 3 -8 -88 34 -235 103 -360 70 -128
157 -227 381 -433 70 -65 124 -118 121 -118 -3 0 3 -12 13 -27 56 -83 69 -249
43 -564 -16 -188 -29 -176 193 -174 159 1 206 7 207 24 1 3 2 87 3 186 3 150
7 194 26 265 52 194 107 255 418 463 103 69 135 137 93 197 -19 26 -44 87 -57
135 -16 63 -32 155 -33 187 l0 38 38 -21 c20 -12 44 -27 52 -34 8 -7 29 -20
46 -28 30 -16 33 -15 78 13 26 17 48 30 51 30 2 0 16 5 32 12 43 17 52 19 138
25 85 6 105 14 105 45 0 10 7 35 15 55 l16 37 34 -49 c45 -63 93 -162 111
-228 41 -155 -23 -285 -171 -352 -27 -12 -56 -29 -63 -37 -23 -29 -69 -132
-82 -188 -20 -81 -15 -250 9 -335 13 -46 16 -72 9 -76 -5 -4 -32 -9 -59 -12
-153 -18 -299 -160 -299 -291 0 -65 -14 -64 485 -62 331 2 458 6 480 15 178
74 288 184 383 381 29 62 33 66 79 78 151 41 332 179 398 305 6 12 17 31 23
42 10 17 27 56 38 90 43 123 43 323 0 437 -54 146 -100 209 -153 210 -41 1
-83 -26 -83 -55 -3 -301 -13 -356 -81 -457 -37 -55 -67 -83 -132 -119 l-34
-19 -12 57 c-15 76 -16 79 -24 87 -4 4 -7 14 -7 21 0 20 -68 156 -114 227
-102 160 -363 365 -666 524 -120 63 -185 96 -190 97 -3 1 -41 18 -85 39 -76
37 -146 68 -190 86 -11 4 -47 20 -80 35 -33 15 -67 28 -75 30 -24 5 -260 113
-260 119 0 2 30 3 68 4 71 0 116 15 169 55 41 30 94 97 87 108 -3 5 -1 9 4 9
14 0 23 62 16 109 -9 53 -58 104 -115 119 -24 6 -78 14 -119 17 -86 7 -210 36
-278 66 -71 32 -84 37 -122 48 -42 12 -127 20 -155 13z"/>
<path d="M698 3430 c-45 -8 -144 -87 -278 -220 -167 -166 -195 -222 -195 -395
0 -101 3 -115 28 -164 32 -63 61 -93 120 -123 52 -26 163 -28 218 -4 46 19
101 65 93 77 -3 5 -1 9 5 9 12 0 22 35 55 202 22 108 53 205 86 269 18 35 41
175 35 214 -7 44 -55 121 -74 118 -6 -2 -11 1 -11 6 0 11 -47 18 -82 11z"/>
<path d="M1495 3132 c-111 -15 -120 -183 -12 -219 115 -39 207 104 120 187
-30 30 -61 39 -108 32z"/>
<path d="M1077 2979 c-34 -28 -37 -35 -37 -81 0 -44 4 -54 34 -84 28 -28 42
-34 76 -34 77 0 120 43 120 118 0 98 -114 146 -193 81z"/>
<path d="M1645 2725 c-96 -26 -135 -40 -135 -47 0 -4 -3 -7 -7 -6 -14 4 -67
-29 -95 -59 -137 -144 0 -344 220 -320 105 12 133 25 198 90 66 68 91 128 81
193 -9 53 -51 111 -95 130 -33 15 -139 27 -167 19z"/>
<path d="M2845 2288 c-27 -24 -33 -58 -21 -110 6 -25 3 -28 -18 -28 -31 0 -68
-45 -64 -78 2 -14 15 -34 30 -45 62 -46 138 -9 138 68 0 39 2 43 30 48 36 8
66 66 50 98 -6 10 -8 19 -4 19 4 0 -3 11 -16 25 -31 33 -88 34 -125 3z"/>
<path d="M2556 2209 c-21 -17 -26 -29 -26 -65 0 -61 32 -94 90 -94 80 0 120
89 69 154 -27 34 -93 37 -133 5z"/>
<path d="M1031 1881 c-12 -8 -12 -32 -1 -163 16 -198 20 -485 7 -668 -12 -188
-22 -178 184 -176 136 1 152 3 165 21 8 10 14 28 14 39 0 12 5 66 10 121 22
219 9 495 -23 495 -6 0 -8 3 -4 6 15 16 -35 78 -162 201 -132 129 -157 145
-190 124z"/>
</g>
</svg>
